# Blender 5.0.1
# www.blender.org
o Sphere
v 0.000000 0.000000 0.050000
v 0.035355 0.000000 0.035355
v 0.050000 0.000000 0.000000
v 0.035355 0.000000 -0.035355
v 0.000000 0.000000 -0.050000
v 0.025000 -0.025000 0.035355
v 0.035355 -0.035355 0.000000
v 0.025000 -0.025000 -0.035355
v 0.000000 -0.035355 0.035355
v 0.000000 -0.050000 0.000000
v 0.000000 -0.035355 -0.035355
v -0.025000 -0.025000 0.035355
v -0.035355 -0.035355 0.000000
v -0.025000 -0.025000 -0.035355
v -0.035355 0.000000 0.035355
v -0.050000 0.000000 0.000000
v -0.035355 0.000000 -0.035355
v -0.025000 0.025000 0.035355
v -0.035355 0.035355 0.000000
v -0.025000 0.025000 -0.035355
v 0.000000 0.035355 0.035355
v 0.000000 0.050000 0.000000
v 0.000000 0.035355 -0.035355
v 0.025000 0.025000 0.035355
v 0.035355 0.035355 0.000000
v 0.025000 0.025000 -0.035355
vn 0.3780 -0.1566 -0.9125
vn 0.8629 -0.3574 0.3574
vn 0.8629 -0.3574 -0.3574
vn 0.3780 -0.1566 0.9125
vn 0.3574 -0.8629 0.3574
vn 0.3574 -0.8629 -0.3574
vn 0.1566 -0.3780 0.9125
vn 0.1566 -0.3780 -0.9125
vn -0.1566 -0.3780 -0.9125
vn -0.3574 -0.8629 0.3574
vn -0.3574 -0.8629 -0.3574
vn -0.1566 -0.3780 0.9125
vn -0.3780 -0.1566 -0.9125
vn -0.8629 -0.3574 0.3574
vn -0.8629 -0.3574 -0.3574
vn -0.3780 -0.1566 0.9125
vn -0.3780 0.1566 -0.9125
vn -0.8629 0.3574 0.3574
vn -0.8629 0.3574 -0.3574
vn -0.3780 0.1566 0.9125
vn -0.1566 0.3780 -0.9125
vn -0.3574 0.8629 0.3574
vn -0.3574 0.8629 -0.3574
vn -0.1566 0.3780 0.9125
vn 0.1566 0.3780 0.9125
vn 0.1566 0.3780 -0.9125
vn 0.3574 0.8629 0.3574
vn 0.3574 0.8629 -0.3574
vn 0.8629 0.3574 -0.3574
vn 0.3780 0.1566 0.9125
vn 0.3780 0.1566 -0.9125
vn 0.8629 0.3574 0.3574
vt 0.687500 0.000000
vt 0.750000 0.250000
vt 0.625000 0.250000
vt 0.750000 0.500000
vt 0.750000 0.750000
vt 0.625000 0.750000
vt 0.625000 0.500000
vt 0.687500 1.000000
vt 0.500000 0.750000
vt 0.500000 0.500000
vt 0.500000 0.250000
vt 0.562500 1.000000
vt 0.562500 0.000000
vt 0.437500 0.000000
vt 0.375000 0.250000
vt 0.375000 0.750000
vt 0.375000 0.500000
vt 0.437500 1.000000
vt 0.312500 0.000000
vt 0.250000 0.250000
vt 0.250000 0.750000
vt 0.250000 0.500000
vt 0.312500 1.000000
vt 0.187500 0.000000
vt 0.125000 0.250000
vt 0.125000 0.750000
vt 0.125000 0.500000
vt 0.187500 1.000000
vt 0.062500 0.000000
vt 0.000000 0.250000
vt 0.000000 0.750000
vt 0.000000 0.500000
vt 0.062500 1.000000
vt 1.000000 0.750000
vt 0.937500 1.000000
vt 0.875000 0.750000
vt 0.937500 0.000000
vt 1.000000 0.250000
vt 0.875000 0.250000
vt 1.000000 0.500000
vt 0.875000 0.500000
vt 0.812500 1.000000
vt 0.812500 0.000000
s 0
f 5/1/1 4/2/1 8/3/1
f 3/4/2 2/5/2 6/6/2 7/7/2
f 4/2/3 3/4/3 7/7/3 8/3/3
f 2/5/4 1/8/4 6/6/4
f 7/7/5 6/6/5 9/9/5 10/10/5
f 8/3/6 7/7/6 10/10/6 11/11/6
f 6/6/7 1/12/7 9/9/7
f 5/13/8 8/3/8 11/11/8
f 5/14/9 11/11/9 14/15/9
f 10/10/10 9/9/10 12/16/10 13/17/10
f 11/11/11 10/10/11 13/17/11 14/15/11
f 9/9/12 1/18/12 12/16/12
f 5/19/13 14/15/13 17/20/13
f 13/17/14 12/16/14 15/21/14 16/22/14
f 14/15/15 13/17/15 16/22/15 17/20/15
f 12/16/16 1/23/16 15/21/16
f 5/24/17 17/20/17 20/25/17
f 16/22/18 15/21/18 18/26/18 19/27/18
f 17/20/19 16/22/19 19/27/19 20/25/19
f 15/21/20 1/28/20 18/26/20
f 5/29/21 20/25/21 23/30/21
f 19/27/22 18/26/22 21/31/22 22/32/22
f 20/25/23 19/27/23 22/32/23 23/30/23
f 18/26/24 1/33/24 21/31/24
f 21/34/25 1/35/25 24/36/25
f 5/37/26 23/38/26 26/39/26
f 22/40/27 21/34/27 24/36/27 25/41/27
f 23/38/28 22/40/28 25/41/28 26/39/28
f 26/39/29 25/41/29 3/4/29 4/2/29
f 24/36/30 1/42/30 2/5/30
f 5/43/31 26/39/31 4/2/31
f 25/41/32 24/36/32 2/5/32 3/4/32
