# Blender 5.0.1
# www.blender.org
o Cylinder
v 0.050000 -0.000000 -0.075000
v 0.050000 -0.000000 0.075000
v 0.035355 -0.035355 -0.075000
v 0.035355 -0.035355 0.075000
v -0.000000 -0.050000 -0.075000
v -0.000000 -0.050000 0.075000
v -0.035355 -0.035355 -0.075000
v -0.035355 -0.035355 0.075000
v -0.050000 0.000000 -0.075000
v -0.050000 0.000000 0.075000
v -0.035355 0.035355 -0.075000
v -0.035355 0.035355 0.075000
v 0.000000 0.050000 -0.075000
v 0.000000 0.050000 0.075000
v 0.035355 0.035355 -0.075000
v 0.035355 0.035355 0.075000
vn 1.0000 -0.0000 -0.0000
vn 0.7071 -0.7071 -0.0000
vn -0.0000 -1.0000 -0.0000
vn -0.7071 -0.7071 -0.0000
vn -1.0000 -0.0000 -0.0000
vn -0.7071 0.7071 -0.0000
vn -0.0000 1.0000 -0.0000
vn -0.0000 -0.0000 1.0000
vn 0.7071 0.7071 -0.0000
vn -0.0000 -0.0000 -1.0000
vt 0.000000 0.000000
vt 0.146445 0.574022
vt 0.000000 0.574022
vt 0.146445 0.000000
vt 0.250000 0.574022
vt 0.750000 0.000000
vt 0.896445 0.574022
vt 0.750000 0.574022
vt 0.896445 0.000000
vt 1.000000 0.574022
vt 0.896445 0.574022
vt 0.250000 0.000000
vt 0.396445 0.574022
vt 0.250000 0.574022
vt 0.396445 0.000000
vt 0.500000 0.574022
vt 0.000000 0.824022
vt 0.103550 0.574022
vt 0.353550 0.677572
vt 0.500000 0.000000
vt 0.646445 0.574022
vt 0.500000 0.574022
vt 0.646445 0.000000
vt 0.750000 0.574022
vt 0.707100 0.824018
vt 0.457105 0.927572
vt 0.353550 0.677577
vt 0.250000 0.000000
vt 0.896445 0.000000
vt 1.000000 0.000000
vt 0.500000 0.000000
vt 0.353550 0.824018
vt 0.250000 0.927572
vt 0.103555 0.927572
vt 0.000000 0.677577
vt 0.249995 0.574022
vt 0.750000 0.000000
vt 0.457100 0.574022
vt 0.603545 0.574022
vt 0.707100 0.677572
vt 0.603550 0.927572
vt 0.353550 0.824022
s 1
f 2/1/1 3/2/2 1/3/1
f 4/4/2 5/5/3 3/2/2
f 6/6/3 7/7/4 5/8/3
f 8/9/4 9/10/5 7/11/4
f 10/12/5 11/13/6 9/14/5
f 12/15/6 13/16/7 11/13/6
f 14/17/8 10/18/8 6/19/8
f 14/20/7 15/21/9 13/22/7
f 16/23/9 1/24/1 15/21/9
f 7/25/10 11/26/10 15/27/10
f 2/1/1 4/4/2 3/2/2
f 4/4/2 6/28/3 5/5/3
f 6/6/3 8/29/4 7/7/4
f 8/9/4 10/30/5 9/10/5
f 10/12/5 12/15/6 11/13/6
f 12/15/6 14/31/7 13/16/7
f 6/19/8 4/32/8 2/33/8
f 2/33/8 16/34/8 14/17/8
f 14/17/8 12/35/8 10/18/8
f 10/18/8 8/36/8 6/19/8
f 6/19/8 2/33/8 14/17/8
f 14/20/7 16/23/9 15/21/9
f 16/23/9 2/37/1 1/24/1
f 15/27/10 1/38/10 3/39/10
f 3/39/10 5/40/10 7/25/10
f 7/25/10 9/41/10 11/26/10
f 11/26/10 13/42/10 15/27/10
f 15/27/10 3/39/10 7/25/10
