# Blender 5.0.1
# www.blender.org
o Cylinder
v 0.050000 -0.000000 -0.075000
v 0.050000 -0.000000 0.075000
v 0.035355 -0.035355 -0.075000
v 0.035355 -0.035355 0.075000
v -0.000000 -0.050000 -0.075000
v -0.000000 -0.050000 0.075000
v -0.035355 -0.035355 -0.075000
v -0.035355 -0.035355 0.075000
v -0.050000 0.000000 -0.075000
v -0.050000 0.000000 0.075000
v -0.035355 0.035355 -0.075000
v -0.035355 0.035355 0.075000
v 0.000000 0.050000 -0.075000
v 0.000000 0.050000 0.075000
v 0.035355 0.035355 -0.075000
v 0.035355 0.035355 0.075000
vn 1.0000 -0.0000 -0.0000
vn 0.7071 -0.7071 -0.0000
vn -0.0000 -1.0000 -0.0000
vn -0.7071 -0.7071 -0.0000
vn -1.0000 -0.0000 -0.0000
vn -0.7071 0.7071 -0.0000
vn -0.0000 1.0000 -0.0000
vn -0.0000 -0.0000 1.0000
vn 0.7071 0.7071 -0.0000
vn -0.0000 -0.0000 -1.0000
s 1
f 2//1 3//2 1//1
f 4//2 5//3 3//2
f 6//3 7//4 5//3
f 8//4 9//5 7//4
f 10//5 11//6 9//5
f 12//6 13//7 11//6
f 14//8 10//8 6//8
f 14//7 15//9 13//7
f 16//9 1//1 15//9
f 7//10 11//10 15//10
f 2//1 4//2 3//2
f 4//2 6//3 5//3
f 6//3 8//4 7//4
f 8//4 10//5 9//5
f 10//5 12//6 11//6
f 12//6 14//7 13//7
f 6//8 4//8 2//8
f 2//8 16//8 14//8
f 14//8 12//8 10//8
f 10//8 8//8 6//8
f 6//8 2//8 14//8
f 14//7 16//9 15//9
f 16//9 2//1 1//1
f 15//10 1//10 3//10
f 3//10 5//10 7//10
f 7//10 9//10 11//10
f 11//10 13//10 15//10
f 15//10 3//10 7//10
