# Blender 5.0.1
# www.blender.org
o Cylinder
v 0.000000 -0.250000 0.520000
v 0.000000 -0.125525 0.719186
v 0.000000 -0.216647 0.635000
v -0.176777 -0.176777 0.520000
v -0.088759 -0.088759 0.719186
v -0.153193 -0.153193 0.635000
v -0.250000 0.000000 0.520000
v -0.125525 0.000000 0.719186
v -0.216647 0.000000 0.635000
v -0.176777 0.176777 0.520000
v -0.088759 0.088759 0.719186
v -0.153193 0.153193 0.635000
v 0.000000 0.250000 0.520000
v 0.000000 0.125525 0.719186
v 0.000000 0.216647 0.635000
v 0.000000 0.000000 0.750000
v 0.176777 0.176777 0.520000
v 0.088759 0.088759 0.719186
v 0.153193 0.153193 0.635000
v 0.250000 0.000000 0.520000
v 0.125525 0.000000 0.719186
v 0.216647 0.000000 0.635000
v 0.176777 -0.176777 0.520000
v 0.088759 -0.088759 0.719186
v 0.153193 -0.153193 0.635000
v 0.000000 -0.250000 -0.520000
v 0.000000 -0.125525 -0.719186
v 0.000000 -0.216647 -0.635000
v -0.176777 -0.176777 -0.520000
v -0.153193 -0.153193 -0.635000
v -0.088759 -0.088759 -0.719186
v -0.250000 0.000000 -0.520000
v -0.216647 0.000000 -0.635000
v -0.125525 0.000000 -0.719186
v -0.176777 0.176777 -0.520000
v -0.153193 0.153193 -0.635000
v -0.088759 0.088759 -0.719186
v 0.000000 0.250000 -0.520000
v 0.000000 0.216647 -0.635000
v 0.000000 0.125525 -0.719186
v 0.176777 0.176777 -0.520000
v 0.000000 0.000000 -0.750000
v 0.153193 0.153193 -0.635000
v 0.088759 0.088759 -0.719186
v 0.250000 0.000000 -0.520000
v 0.216647 0.000000 -0.635000
v 0.125525 0.000000 -0.719186
v 0.176777 -0.176777 -0.520000
v 0.153193 -0.153193 -0.635000
v 0.088759 -0.088759 -0.719186
vn -0.0000 -0.9907 0.1361
vn -0.0000 -0.5189 0.8548
vn -0.0000 -0.8670 0.4984
vn -0.7005 -0.7005 0.1361
vn -0.3669 -0.3669 0.8548
vn -0.6130 -0.6130 0.4984
vn -0.9907 -0.0000 0.1361
vn -0.5189 -0.0000 0.8548
vn -0.8670 -0.0000 0.4984
vn -0.7005 0.7005 0.1361
vn -0.3669 0.3669 0.8548
vn -0.6130 0.6130 0.4984
vn -0.0000 0.9907 0.1361
vn -0.0000 0.5189 0.8548
vn -0.0000 0.8670 0.4984
vn -0.0000 -0.0000 1.0000
vn 0.7005 0.7005 0.1361
vn 0.3669 0.3669 0.8548
vn 0.6130 0.6130 0.4984
vn 0.9907 -0.0000 0.1361
vn 0.5189 -0.0000 0.8548
vn 0.8670 -0.0000 0.4984
vn 0.7005 -0.7005 0.1361
vn 0.3669 -0.3669 0.8548
vn 0.6130 -0.6130 0.4984
vn -0.0000 -0.9907 -0.1361
vn -0.0000 -0.5189 -0.8548
vn -0.0000 -0.8670 -0.4984
vn -0.7005 -0.7005 -0.1361
vn -0.6130 -0.6130 -0.4984
vn -0.3669 -0.3669 -0.8548
vn -0.9907 -0.0000 -0.1361
vn -0.8670 -0.0000 -0.4984
vn -0.5189 -0.0000 -0.8548
vn -0.7005 0.7005 -0.1361
vn -0.6130 0.6130 -0.4984
vn -0.3669 0.3669 -0.8548
vn -0.0000 0.9907 -0.1361
vn -0.0000 0.8670 -0.4984
vn -0.0000 0.5189 -0.8548
vn 0.7005 0.7005 -0.1361
vn -0.0000 -0.0000 -1.0000
vn 0.6130 0.6130 -0.4984
vn 0.3669 0.3669 -0.8548
vn 0.9907 -0.0000 -0.1361
vn 0.8670 -0.0000 -0.4984
vn 0.5189 -0.0000 -0.8548
vn 0.7005 -0.7005 -0.1361
vn 0.6130 -0.6130 -0.4984
vn 0.3669 -0.3669 -0.8548
vt 0.875000 0.923333
vt 1.000000 0.923333
vt 0.991662 1.000000
vt 0.875000 1.000000
vt 0.416390 0.416390
vt 0.250000 0.485311
vt 0.250000 0.370504
vt 0.335209 0.335209
vt 0.250713 0.250713
vt 0.750000 0.923333
vt 0.750000 1.000000
vt 0.485311 0.250000
vt 0.370504 0.250000
vt 0.251008 0.250000
vt 0.625000 0.923333
vt 0.625000 1.000000
vt 0.416390 0.083610
vt 0.335209 0.164791
vt 0.250713 0.249287
vt 0.500000 0.923333
vt 0.500000 1.000000
vt 0.250000 0.014689
vt 0.250000 0.129496
vt 0.250000 0.248992
vt 0.375000 0.923333
vt 0.375000 1.000000
vt 0.083610 0.083610
vt 0.164791 0.164791
vt 0.249287 0.249287
vt 0.250000 0.923333
vt 0.250000 1.000000
vt 0.014689 0.250000
vt 0.129496 0.250000
vt 0.248992 0.250000
vt 0.125000 0.923333
vt 0.125000 1.000000
vt 0.083610 0.416390
vt 0.164791 0.335209
vt 0.249287 0.250713
vt 0.000000 0.923333
vt 0.008338 1.000000
vt 0.250000 0.251008
vt 1.000000 0.576667
vt 0.875000 0.576667
vt 0.875000 0.500000
vt 0.991662 0.500000
vt 0.750000 0.485311
vt 0.916390 0.416390
vt 0.835209 0.335209
vt 0.750000 0.370504
vt 0.750000 0.251008
vt 0.750000 0.576667
vt 0.750000 0.500000
vt 0.985311 0.250000
vt 0.870504 0.250000
vt 0.750713 0.250713
vt 0.625000 0.576667
vt 0.625000 0.500000
vt 0.916390 0.083610
vt 0.835209 0.164791
vt 0.751008 0.250000
vt 0.500000 0.576667
vt 0.500000 0.500000
vt 0.750000 0.014689
vt 0.750000 0.129496
vt 0.750713 0.249287
vt 0.375000 0.576667
vt 0.375000 0.500000
vt 0.583610 0.083610
vt 0.664791 0.164791
vt 0.750000 0.248992
vt 0.250000 0.576667
vt 0.250000 0.500000
vt 0.514689 0.250000
vt 0.629496 0.250000
vt 0.749287 0.249287
vt 0.125000 0.576667
vt 0.125000 0.500000
vt 0.583610 0.416390
vt 0.664791 0.335209
vt 0.748992 0.250000
vt 0.000000 0.576667
vt 0.008338 0.500000
vt 0.749287 0.250713
s 1
f 4/1/4 1/2/1 3/3/3 6/4/6
f 6/5/6 3/6/3 2/7/2 5/8/5
f 5/8/5 2/7/2 16/9/16
f 7/10/7 4/1/4 6/4/6 9/11/9
f 9/12/9 6/5/6 5/8/5 8/13/8
f 8/13/8 5/8/5 16/14/16
f 10/15/10 7/10/7 9/11/9 12/16/12
f 12/17/12 9/12/9 8/13/8 11/18/11
f 11/18/11 8/13/8 16/19/16
f 13/20/13 10/15/10 12/16/12 15/21/15
f 15/22/15 12/17/12 11/18/11 14/23/14
f 14/23/14 11/18/11 16/24/16
f 17/25/17 13/20/13 15/21/15 19/26/19
f 19/27/19 15/22/15 14/23/14 18/28/18
f 18/28/18 14/23/14 16/29/16
f 20/30/20 17/25/17 19/26/19 22/31/22
f 22/32/22 19/27/19 18/28/18 21/33/21
f 21/33/21 18/28/18 16/34/16
f 23/35/23 20/30/20 22/31/22 25/36/25
f 25/37/25 22/32/22 21/33/21 24/38/24
f 24/38/24 21/33/21 16/39/16
f 1/40/1 23/35/23 25/36/25 3/41/3
f 3/6/3 25/37/25 24/38/24 2/7/2
f 2/7/2 24/38/24 16/42/16
f 26/43/26 29/44/29 30/45/30 28/46/28
f 28/47/28 30/48/30 31/49/31 27/50/27
f 27/50/27 31/49/31 42/51/42
f 29/44/29 32/52/32 33/53/33 30/45/30
f 30/48/30 33/54/33 34/55/34 31/49/31
f 31/49/31 34/55/34 42/56/42
f 32/52/32 35/57/35 36/58/36 33/53/33
f 33/54/33 36/59/36 37/60/37 34/55/34
f 34/55/34 37/60/37 42/61/42
f 35/57/35 38/62/38 39/63/39 36/58/36
f 36/59/36 39/64/39 40/65/40 37/60/37
f 37/60/37 40/65/40 42/66/42
f 38/62/38 41/67/41 43/68/43 39/63/39
f 39/64/39 43/69/43 44/70/44 40/65/40
f 40/65/40 44/70/44 42/71/42
f 41/67/41 45/72/45 46/73/46 43/68/43
f 43/69/43 46/74/46 47/75/47 44/70/44
f 44/70/44 47/75/47 42/76/42
f 45/72/45 48/77/48 49/78/49 46/73/46
f 46/74/46 49/79/49 50/80/50 47/75/47
f 47/75/47 50/80/50 42/81/42
f 48/77/48 26/82/26 28/83/28 49/78/49
f 49/79/49 28/47/28 27/50/27 50/80/50
f 50/80/50 27/50/27 42/84/42
f 26/43/26 1/2/1 4/1/4 29/44/29
f 48/77/48 23/35/23 1/40/1 26/82/26
f 29/44/29 4/1/4 7/10/7 32/52/32
f 32/52/32 7/10/7 10/15/10 35/57/35
f 35/57/35 10/15/10 13/20/13 38/62/38
f 38/62/38 13/20/13 17/25/17 41/67/41
f 41/67/41 17/25/17 20/30/20 45/72/45
f 45/72/45 20/30/20 23/35/23 48/77/48
