# Blender 5.0.1
# www.blender.org
o Cube.001
v -24.999998 -25.000002 0.050004
v -24.999998 -25.000002 -0.049996
v 25.000002 -24.999998 0.050004
v 25.000002 -24.999998 -0.049996
v -25.000002 24.999998 0.049996
v -25.000002 24.999998 -0.050004
v 24.999998 25.000002 0.049996
v 24.999998 25.000002 -0.050004
vn -0.0000 -1.0000 -0.0000
vn 1.0000 -0.0000 -0.0000
vn -0.0000 1.0000 -0.0000
vn -1.0000 -0.0000 -0.0000
vn -0.0000 -0.0000 1.0000
vn -0.0000 -0.0000 -1.0000
vt 12.525000 12.500000
vt 12.500000 12.500000
vt 12.500000 0.000000
vt 12.525000 0.000000
vt 12.525000 25.000000
vt 12.500000 25.000000
vt 12.549999 12.500000
vt 12.549999 0.000000
vt 12.549999 25.000000
vt 0.000000 12.500000
vt 0.000000 0.000000
vt 0.000000 25.000000
s 1
f 1/1/1 2/2/1 4/3/1 3/4/1
f 3/5/2 4/6/2 8/2/2 7/1/2
f 7/7/3 8/1/3 6/4/3 5/8/3
f 5/9/4 6/5/4 2/1/4 1/7/4
f 3/2/5 7/10/5 5/11/5 1/3/5
f 8/10/6 4/2/6 2/6/6 6/12/6
