# Blender 5.0.1
# www.blender.org
o Cube
v -0.050000 -1.000000 -0.050000
v -0.050000 -1.000000 0.050000
v -0.050000 1.000000 -0.050000
v -0.050000 1.000000 0.050000
v 0.050000 -1.000000 -0.050000
v 0.050000 -1.000000 0.050000
v 0.050000 1.000000 -0.050000
v 0.050000 1.000000 0.050000
vn -1.0000 -0.0000 -0.0000
vn -0.0000 1.0000 -0.0000
vn 1.0000 -0.0000 -0.0000
vn -0.0000 -1.0000 -0.0000
vn -0.0000 -0.0000 -1.0000
vn -0.0000 -0.0000 1.0000
vt 1.000000 0.966667
vt 1.000000 1.016667
vt 0.000000 1.016667
vt 0.000000 0.966667
vt 0.050000 0.766667
vt 0.050000 0.816667
vt -0.000000 0.816667
vt 0.000000 0.766667
vt 1.000000 0.916667
vt 0.000000 0.966667
vt 0.000000 0.916667
vt 0.100000 0.766667
vt 0.100000 0.816667
vt 1.000000 0.866667
vt -0.000000 0.916667
vt 0.000000 0.866667
vt 1.000000 0.816667
s 1
f 1/1/1 2/2/1 4/3/1 3/4/1
f 3/5/2 4/6/2 8/7/2 7/8/2
f 7/9/3 8/1/3 6/10/3 5/11/3
f 5/12/4 6/13/4 2/6/4 1/5/4
f 3/14/5 7/9/5 5/15/5 1/16/5
f 8/17/6 4/14/6 2/16/6 6/7/6
