# Blender 5.0.1
# www.blender.org
mtllib scene.mtl
o Floor
v 7.000000 -8.000000 4.000001
v -4.999998 5.000000 -0.950001
v -5.000000 -4.999998 -0.949999
v -0.200000 -1.000000 -0.950000
v -0.200000 -1.000000 0.050000
v -0.200000 1.000000 -0.950000
v -0.200000 1.000000 0.050000
v 0.200000 -1.000000 -0.950000
v 0.200000 -1.000000 0.050000
v 0.200000 1.000000 -0.950000
v 0.200000 1.000000 0.050000
v -5.000000 -7.999998 -0.949999
v 7.000001 4.999999 4.000000
v -2.999998 5.000000 -0.950001
v 7.000000 -8.000001 2.000001
v -3.000001 -4.999999 -0.949999
v -3.000002 -7.999999 -0.949999
v 2.999999 -5.000000 -0.949999
v 3.000002 4.999999 -0.950001
v 6.999999 -5.000000 4.000000
v 2.999998 -8.000000 2.000001
v 2.999999 -5.000000 2.000000
v 6.999999 -5.000000 2.000000
v 7.000001 4.999999 1.999999
v 3.000002 4.999999 1.999999
v -5.000000 5.000000 4.000000
v -5.000000 -8.000000 4.000001
vn -0.0000 -0.0000 1.0000
vn -1.0000 -0.0000 -0.0000
vn -0.0000 1.0000 -0.0000
vn 1.0000 -0.0000 -0.0000
vn -0.0000 -1.0000 -0.0000
vn -0.4412 -0.0000 0.8974
vt 0.000000 0.000000
vt 2.500000 -0.000000
vt 2.500000 0.500000
vt 0.000000 0.500000
vt 0.250000 0.000000
vt 0.250000 0.500000
vt 0.000000 0.500000
vt 0.250000 0.100000
vt 0.000000 0.100000
vt 0.100000 0.000000
vt 0.100000 0.500000
vt 0.500000 0.000000
vt 0.499999 0.750000
vt -0.000000 0.750000
vt 1.500000 0.000000
vt 0.000000 0.737500
vt 2.500000 -0.000000
vt 2.500000 1.500000
vt -0.000000 1.500000
vt 1.671498 0.000000
vt 1.671498 0.750000
vt -0.000000 0.750000
vt 2.500000 0.000000
vt 0.000000 0.500000
vt 1.000000 0.000000
vt 1.000000 0.750000
vt -0.000000 0.750000
vt 2.500000 0.000000
vt 2.500000 1.000000
vt -0.000000 1.000000
vt 0.250000 0.262497
vt 2.750000 0.262497
vt 2.750000 1.000000
vt 0.250000 1.000000
vt 0.750000 0.000000
vt 0.750000 0.500000
vt -0.000000 0.500000
vt -0.000000 -1.237500
vt 0.500000 -1.237501
vt 2.000001 -1.237501
vt 2.000001 -0.500001
vt -3.000000 0.000000
vt -1.000000 -0.499998
vt -0.000000 -0.499998
vt -3.250000 -0.000000
vt -3.249999 -1.237500
vt 0.000000 -1.237500
vt 0.000000 0.000000
vt 1.500000 -0.737500
vt 2.000000 -0.737501
vt 2.000001 0.499997
vt 2.000000 0.500000
vt -1.000000 0.500000
vt -1.000000 0.000000
s 1
usemtl wall
f 4/1/2 5/5/2 7/6/2 6/7/2
f 6/1/3 7/5/3 11/8/3 10/9/3
f 10/1/4 11/5/4 9/6/4 8/7/4
f 8/1/5 9/5/5 5/8/5 4/9/5
f 18/1/3 16/15/3 22/16/3
f 24/1/2 23/23/2 20/3/2 13/24/2
f 19/31/2 18/32/2 22/33/2 25/34/2
f 23/1/2 15/35/2 1/36/2 20/37/2
f 26/1/5 2/38/5 14/39/5 19/40/5 25/41/5
f 13/1/5 26/42/5 25/43/5 24/44/5
f 26/1/4 27/45/4 12/46/4 2/47/4
f 21/48/3 17/49/3 12/50/3 27/51/3
f 21/1/3 27/52/3 1/53/3 15/54/3
usemtl floor
f 16/1/1 14/2/1 2/3/1 3/4/1
f 11/1/1 7/10/1 5/11/1 9/7/1
f 16/1/1 3/12/1 12/13/1 17/14/1
f 18/1/1 19/17/1 14/18/1 16/19/1
f 22/1/6 16/20/6 17/21/6 21/22/6
f 23/1/1 22/25/1 21/26/1 15/27/1
f 23/1/1 24/28/1 25/29/1 22/30/1
