# Blender 5.0.1
# www.blender.org
o Floor
v -24.999996 25.000004 -1.050000
v -24.999996 25.000004 -0.950000
v 25.000004 24.999996 -1.050000
v 25.000004 24.999996 -0.950000
v -25.000004 -24.999996 -1.050000
v -25.000004 -24.999996 -0.950000
v 24.999996 -25.000004 -1.050000
v 24.999996 -25.000004 -0.950000
vn -0.0000 1.0000 -0.0000
vn 1.0000 -0.0000 -0.0000
vn -0.0000 -1.0000 -0.0000
vn -1.0000 -0.0000 -0.0000
vn -0.0000 -0.0000 -1.0000
vn -0.0000 -0.0000 1.0000
vt 1.002000 1.000000
vt 1.000000 1.000000
vt 1.000000 -0.000000
vt 1.002000 -0.000000
vt 1.002000 2.000000
vt 1.000000 2.000000
vt 1.004000 1.000000
vt 1.004000 -0.000000
vt 1.004000 2.000000
vt 0.000000 1.000000
vt 0.000000 0.000000
vt 0.000000 2.000000
s 1
f 1/1/1 2/2/1 4/3/1 3/4/1
f 3/5/2 4/6/2 8/2/2 7/1/2
f 7/7/3 8/1/3 6/4/3 5/8/3
f 5/9/4 6/5/4 2/1/4 1/7/4
f 3/2/5 7/10/5 5/11/5 1/3/5
f 8/10/6 4/2/6 2/6/6 6/12/6
o Plank
v -0.050000 -1.000000 -0.050000
v -0.050000 -1.000000 0.050000
v -0.050000 1.000000 -0.050000
v -0.050000 1.000000 0.050000
v 0.050000 -1.000000 -0.050000
v 0.050000 -1.000000 0.050000
v 0.050000 1.000000 -0.050000
v 0.050000 1.000000 0.050000
vn -1.0000 -0.0000 -0.0000
vn -0.0000 1.0000 -0.0000
vn 1.0000 -0.0000 -0.0000
vn -0.0000 -1.0000 -0.0000
vn -0.0000 -0.0000 -1.0000
vn -0.0000 -0.0000 1.0000
vt 1.000000 0.966667
vt 1.000000 1.016667
vt 0.000000 1.016667
vt 0.000000 0.966667
vt 0.050000 0.766667
vt 0.050000 0.816667
vt -0.000000 0.816667
vt 0.000000 0.766667
vt 1.000000 0.916667
vt 0.000000 0.916667
vt 0.100000 0.766667
vt 0.100000 0.816667
vt 1.000000 0.866667
vt 0.000000 0.866667
vt 1.000000 0.816667
s 1
f 9/13/7 10/14/7 12/15/7 11/16/7
f 11/17/8 12/18/8 16/19/8 15/20/8
f 15/21/9 16/13/9 14/16/9 13/22/9
f 13/23/10 14/24/10 10/18/10 9/17/10
f 11/25/11 15/21/11 13/22/11 9/26/11
f 16/27/12 12/25/12 10/26/12 14/19/12
